<svg width="40" height="61" viewBox="0 0 40 61" fill="none" xmlns="http://www.w3.org/2000/svg">
<path d="M35.9494 50.9336L37.4684 51.9626C34.6835 55.8217 29.3671 60.9671 20 60.9671C8.86077 60.9671 0 51.1908 0 38.8419C0 26.493 8.86077 16.7168 20 16.7168C31.1393 16.7168 40 26.493 40 38.8419V39.871H38.9874H1.77214C2.27847 50.6763 10.1266 59.4234 20 59.4234C28.6076 59.4234 33.1646 54.5353 35.9494 50.9336ZM1.77214 38.0701H38.2279C38.2279 27.7794 30.1266 18.5177 20 18.5177C9.87342 18.5177 2.02531 27.0076 1.77214 38.0701Z" fill="white"/>
<path d="M18.5 12.7834C22.0899 12.7834 25 9.92174 25 6.3917C25 2.86166 22.0899 0 18.5 0C14.9101 0 12 2.86166 12 6.3917C12 9.92174 14.9101 12.7834 18.5 12.7834Z" fill="white"/>
</svg>
