<svg width="157" height="40" viewBox="0 0 157 40" fill="none" xmlns="http://www.w3.org/2000/svg">
<path d="M1.44496 38.9381L1.2844 39.2498H0L0.321101 38.4706L17.0183 1.38478C17.1789 0.917312 17.8211 0.917312 17.9817 1.38478L34.6789 38.4706L35 39.2498H34.0367L33.8762 38.9381L17.6605 3.09883L1.44496 38.9381Z" fill="white"/>
<path d="M41.1011 19.6492C43.1461 15.0192 47.7079 12.3955 53.3708 12.3955H54V13.4759H53.3708C46.2921 13.4759 41.1011 17.6429 41.1011 25.514V25.8226V26.44V38.6324V39.2498H40V38.6324V26.44V25.8226C40 25.6683 40 25.6683 40 25.514V13.0128V12.3955H41.1011V13.0128V19.6492Z" fill="white"/>
<path d="M58 25.8226C58 18.3284 63.6962 12.3955 70.5 12.3955C77.462 12.3955 83 18.3284 83 25.8226C83 33.3168 77.3038 39.2498 70.5 39.2498C63.6962 39.2498 58 33.3168 58 25.8226ZM59.2658 25.8226C59.2658 32.6923 64.3291 38.1568 70.6582 38.1568C76.9873 38.1568 82.0506 32.6923 82.0506 25.8226C82.0506 18.9529 76.9873 13.4884 70.6582 13.4884C64.3291 13.4884 59.2658 18.9529 59.2658 25.8226Z" fill="white"/>
<path d="M106.76 19.0319C108.04 15.0192 111.56 12.3955 115.56 12.3955C120.68 12.3955 125 16.8712 125 22.7359V38.6324V39.2498H123.88V38.6324V22.7359C123.88 17.6429 120.2 13.6302 115.72 13.6302C111.08 13.6302 107.56 17.6429 107.56 22.7359V23.3533V38.6324V39.2498H106.44V38.6324V23.3533V22.7359C106.44 17.6429 102.76 13.6302 98.28 13.6302C93.64 13.6302 90.12 17.6429 90.12 22.7359V23.3533V38.6324V39.2498H89V38.6324V23.3533V22.7359V13.0128V12.3955H90.12V13.0128V17.7972C91.72 14.5562 94.76 12.5498 98.28 12.5498C101.96 12.2412 105.48 15.0192 106.76 19.0319Z" fill="white"/>
<path d="M154.468 33.1607L155.418 33.7852C153.677 36.1272 150.354 39.2498 144.5 39.2498C137.538 39.2498 132 33.3168 132 25.8226C132 18.3284 137.538 12.3955 144.5 12.3955C151.462 12.3955 157 18.3284 157 25.8226V26.4471H156.367H133.108C133.424 33.0046 138.329 38.313 144.5 38.313C150.038 38.1568 152.886 35.3465 154.468 33.1607ZM133.108 25.1981H155.892C155.892 18.9529 150.829 13.3323 144.5 13.3323C138.329 13.4884 133.424 18.6407 133.108 25.1981Z" fill="white"/>
<path d="M144.5 8.26416C146.433 8.26416 148 6.64567 148 4.64917C148 2.65267 146.433 1.03418 144.5 1.03418C142.567 1.03418 141 2.65267 141 4.64917C141 6.64567 142.567 8.26416 144.5 8.26416Z" stroke="white" stroke-width="0.5" stroke-miterlimit="10"/>
</svg>
