<svg width="250" height="62" viewBox="0 0 250 62" fill="none" xmlns="http://www.w3.org/2000/svg">
<path d="M2.26027 60.7881L2.00913 61.2852H0L0.502283 60.0423L26.8721 1.12613C27.1233 0.380359 28.1279 0.380359 28.379 1.12613L54.4977 60.2909L55 61.5338H52.9909L52.7397 61.0366L27.6256 3.61205L2.26027 60.7881Z" fill="black"/>
<path d="M65.7303 29.2362C68.9438 21.6069 76.1124 17.2836 85.0112 17.2836H86V19.0638H85.0112C73.8876 19.0638 65.7303 25.9302 65.7303 38.9001V39.4087V40.4259V60.5166V61.5338H64V60.5166V40.4259V39.4087C64 39.1544 64 39.1544 64 38.9001V18.0465V17.2836H65.7303V18.3008V29.2362Z" fill="black"/>
<path d="M90 39.4087C90 27.0598 99.3418 17.2836 110.5 17.2836C121.918 17.2836 131 27.0598 131 39.4087C131 51.7576 121.658 61.5338 110.5 61.5338C99.3418 61.5338 90 51.7576 90 39.4087ZM91.8165 39.4087C91.8165 50.7285 100.12 59.7329 110.5 59.7329C120.88 59.7329 129.184 50.7285 129.184 39.4087C129.184 28.0889 120.88 19.0845 110.5 19.0845C100.38 19.0845 91.8165 28.0889 91.8165 39.4087Z" fill="black"/>
<path d="M169.613 28.219C171.676 21.6069 177.347 17.2836 183.791 17.2836C192.04 17.2836 199 24.6586 199 34.3225V60.5166V61.5338H197.196V60.5166V34.3225C197.196 25.9302 191.267 19.3181 184.049 19.3181C176.573 19.3181 170.902 25.9302 170.902 34.3225V35.3397V60.5166V61.5338H169.098V60.5166V35.3397V34.3225C169.098 25.9302 163.169 19.3181 155.951 19.3181C148.476 19.3181 142.804 25.9302 142.804 34.3225V35.3397V60.5166V61.5338H141V60.5166V35.3397V34.3225V18.0465V17.2836H142.289V18.3008V26.1845C144.867 20.8439 149.764 17.5379 155.436 17.5379C162.138 17.2836 167.551 21.6069 169.613 28.219Z" fill="black"/>
<path d="M245.949 51.5003L247.468 52.5294C244.684 56.3884 239.367 61.5338 230 61.5338C218.861 61.5338 210 51.7576 210 39.4087C210 27.0598 218.861 17.2836 230 17.2836C241.139 17.2836 250 27.0598 250 39.4087V40.4378H248.987H211.772C212.278 51.2431 220.127 59.9902 230 59.9902C238.608 59.9902 243.165 55.1021 245.949 51.5003ZM211.772 38.6369H248.228C248.228 28.3461 240.127 19.0845 230 19.0845C219.873 19.0845 212.025 27.5743 211.772 38.6369Z" fill="black"/>
<path d="M228.5 13.3502C232.09 13.3502 235 10.4885 235 6.95851C235 3.42847 232.09 0.566803 228.5 0.566803C224.91 0.566803 222 3.42847 222 6.95851C222 10.4885 224.91 13.3502 228.5 13.3502Z" fill="black"/>
</svg>
